<svg width="900" height="600" viewBox="0 0 900 600" fill="none" xmlns="http://www.w3.org/2000/svg"><path fill="transparent" d="M0 0h900v600H0z"/><path d="M692.038 345.07c3.084 56.838-108.039 172.412-245.006 129.634-63.702-19.897-58.306-52.922-106.745-96.446-28.872-25.941-70.356-45.557-81.894-83.264-9.967-32.547-3.855-67.53 13.425-90.284 38.863-51.174 117.32-86.215 194.625-5.587 77.304 80.627 217.623-.643 225.595 145.947z" fill="url(#a)"/><path d="M649.19 204.731c-10.154 18.122-32.392 20.612-68.02 17.168-26.794-2.594-51.229-4.602-78.025-19.212-18.756-10.219-33.603-24.044-44.439-37.472-11.742-14.547-28.132-31.149-20.097-47.642 11.042-22.657 74.894-41.74 136.898-10.534 68.11 34.29 83.617 79.981 73.683 97.692z" fill="url(#b)"/><path d="M373.947 476.36c-28.763-40.239-58.22-83.007-96.786-104.072-39.779-21.738-47.115-8.34-49.868 12.96-2.754 21.299 9.519 71.766 63.806 100.48 54.301 28.722 109.761 28.292 82.848-9.368z" fill="url(#c)"/><path d="M688.482 244.223c-12.922 3.061-26.589-7.897-26.589-7.897s7.293-15.916 20.22-18.968c12.921-3.061 26.584 7.888 26.584 7.888s-7.293 15.916-20.215 18.977z" fill="url(#d)"/><path d="M362.385 114.139c13.603 9.37 34.387 2.82 34.387 2.82s-1.287-21.74-14.9-31.1c-13.604-9.37-34.378-2.83-34.378-2.83s1.287 21.74 14.891 31.11z" fill="url(#e)"/><path d="M189.276 289.055c14.748 15.011 42.326 11.846 42.326 11.846s3.65-27.502-11.112-42.503c-14.748-15.011-42.313-11.855-42.313-11.855s-3.649 27.502 11.099 42.512z" fill="url(#f)"/><ellipse cx="662.453" cy="372.465" rx="10.96" ry="10.484" transform="rotate(180 662.453 372.465)" fill="#f66668"/><ellipse cx="288.853" cy="424.883" rx="14.773" ry="14.296" transform="rotate(180 288.853 424.883)" fill="#f66668"/><circle r="5.242" transform="matrix(-1 0 0 1 268.839 249.996)" fill="#f66668"/><circle r="10.007" transform="matrix(-1 0 0 1 677.027 166.618)" fill="#f66668"/><circle r="9" transform="matrix(-1 0 0 1 660 458)" fill="#E1E4E5"/><circle r="9.467" transform="matrix(-1 0 0 1 227.068 339.467)" fill="#E1E4E5"/><circle r="3.336" transform="matrix(-1 0 0 1 334.6 473.012)" fill="#E1E4E5"/><circle r="4.765" transform="matrix(-1 0 0 1 589.545 136.105)" fill="#E1E4E5"/><circle r="4.657" transform="scale(1 -1) rotate(-75 -55.33 -337.809)" fill="#E1E4E5"/><circle r="6.195" transform="matrix(-1 0 0 1 290.759 198.531)" fill="#E1E4E5"/><ellipse rx="4.765" ry="3.812" transform="matrix(-1 0 0 1 669.602 308.61)" fill="#E1E4E5"/><circle r="9.691" transform="scale(1 -1) rotate(-75 167.864 -356.915)" fill="#E1E4E5"/><path d="M725.359 286.154h.124c.738 10.46 8.517 10.621 8.517 10.621s-8.578.167-8.578 12.253c0-12.086-8.577-12.253-8.577-12.253s7.775-.161 8.514-10.621zM328.772 141.823h.215c1.271 18.304 14.668 18.586 14.668 18.586s-14.773.293-14.773 21.443c0-21.15-14.772-21.443-14.772-21.443s13.391-.282 14.662-18.586z" fill="#E1E4E5"/><path d="M401.892 422.625s-19.843-10.538-21.436-13.213c-1.6-2.666-9.224-15.922-16.212-21.138-6.978-5.208-14.108-2.436-17.504 2.067l6.06 9.625s-11.382-8.762-17.407-6.625c-6.025 2.137-6.755 9.195-6.755 9.195s4.944 2.624 7.329 4.908c2.385 2.284 25.062 40.095 80.46 50.069 55.398 9.974 60.536 2.747 61.168 2.25.633-.498 2.979-11.188 2.979-11.188l-78.682-25.95z" fill="#F8AE9D"/><path opacity=".1" d="M401.892 422.625s-19.843-10.538-21.436-13.213c-1.6-2.666-9.224-15.922-16.212-21.138-6.978-5.208-14.108-2.436-17.504 2.067l6.06 9.625s-11.382-8.762-17.407-6.625c-6.025 2.137-6.755 9.195-6.755 9.195s4.944 2.624 7.329 4.908c2.385 2.284 25.062 40.095 80.46 50.069 55.398 9.974 60.536 2.747 61.168 2.25.633-.498 2.979-11.188 2.979-11.188l-78.682-25.95z" fill="#000"/><path fill-rule="evenodd" clip-rule="evenodd" d="M544.783 423.4c1.489.57 2.8 1.072 3.965 1.445 5.353 1.712 18.049 12.085 18.049 12.085l-.119.188c6.893 5.245 10.576 7.79 17.549 12.459 6.244 4.181 31.218 14.166 46.703 20.181 6.442 2.502 8.936 10.334 5.091 16.076l-32.557 48.62c-3.528 5.27-10.817 6.356-15.71 2.323-15.546-12.813-45.895-37.83-49.935-41.179-2.122-1.76-5.454-3.078-8.736-4.032-2.81-.389-10.619-1.006-31.135-.668-13.071.215-21.001 2.851-27.801 5.112-8.193 2.724-14.746 4.902-26.673 1.647 0 0-44.616-20.745-55.14-25.244-9.694-4.152-12.941-7.336-20.678-14.923-.651-.64-1.335-1.31-2.057-2.015-3.485-3.399-6.885-6.081-10.221-8.712-4.983-3.931-9.823-7.748-14.588-13.673-4.476-5.554-7.565-7.433-9.388-8.542-1.423-.865-2.074-1.261-2.011-2.569.142-2.984 9.94-8.428 14.832-6.421 4.891 2.008 12.252 8.301 12.252 8.301s27.446 19.912 32.339 22.114c2.452 1.108 9.902 3.324 17.336 5.534 7.384 2.196 14.753 4.387 17.191 5.484 4.888 2.21 45.42 2.902 45.42 2.902-1.302-.558-2.367-1.077-3.094-1.528-2.874-1.774-9.43-2.263-16.78-2.811-5.606-.418-11.673-.87-16.92-1.953-7.797-1.604-13.271-3.648-19.348-5.917-3.378-1.261-6.942-2.592-11.194-3.955-11.904-3.817-16.792-10.978-13.435-18.368 3.356-7.39 9.135-9.281 15.262-8.922 6.128.359 22.62 1.898 39.307 6.9 13.025 3.913 20.702 1.307 28.573-1.365 2.21-.75 4.435-1.505 6.798-2.123 10.78-2.818 27.678-3.689 42.355-2.423 11.482.99 19.144 3.923 24.498 5.972z" fill="#F8AE9D"/><path fill-rule="evenodd" clip-rule="evenodd" d="M425.862 131c-3.876 2.872-7.319 6.606-10.07 11.2-12.703 21.209-21.777 44.178-27.221 67.902-20.082-2.71-39.572-6.828-57.857-12.353 19.56-34.842 54.24-60.056 95.148-66.749zm-99.781 75.79c19.085 5.882 39.455 10.257 60.452 13.126a243.347 243.347 0 0 0-.004 88.809c-20.676 2.827-40.743 7.114-59.573 12.862-8.534-17.632-13.319-37.418-13.319-58.321 0-20.177 4.458-39.313 12.444-56.476zm5.664 123.797c19.202 32.993 52.085 57.042 90.877 64.374-2.565-2.397-4.872-5.23-6.829-8.498-12.707-21.215-21.783-44.192-27.227-67.923-19.704 2.66-38.838 6.676-56.821 12.047zm66.802-13.273c5.237 22.365 13.845 44.01 25.825 64.01v.001c10.797 18.034 35.808 18.034 46.605 0l.001-.001c11.979-20 20.587-41.645 25.824-64.01-32.336-3.586-65.921-3.586-98.255 0zm108.236 1.226c-5.444 23.731-14.519 46.708-27.226 67.923-1.957 3.267-4.263 6.098-6.826 8.495 38.787-7.337 71.664-31.386 90.863-64.376-17.981-5.369-37.112-9.383-56.811-12.042zm61.599 3.041c-18.828-5.745-38.891-10.03-59.562-12.856a243.342 243.342 0 0 0-.004-88.812c20.992-2.87 41.357-7.246 60.436-13.128 7.987 17.164 12.447 36.302 12.447 56.481 0 20.901-4.784 40.684-13.317 58.315zm-69.503-14.097c-33.695-3.813-68.716-3.813-102.408 0a233.33 233.33 0 0 1 .004-86.327c33.692 3.812 68.71 3.811 102.399-.003a233.326 233.326 0 0 1 .005 86.33zm-100.327-96.156c32.334 3.584 65.914 3.583 98.245-.003-5.238-22.357-13.844-43.994-25.819-63.987-10.814-18.037-35.81-18.032-46.606-.001v.001c-11.976 19.994-20.582 41.632-25.82 63.99zm108.226-1.23c20.077-2.711 39.562-6.829 57.841-12.355-19.56-34.837-54.235-60.047-95.137-66.742 3.876 2.872 7.321 6.605 10.074 11.197l.001.002c12.702 21.208 21.776 44.176 27.221 67.898z" fill="#f66668"/><defs><linearGradient id="a" x1="559.222" y1="685.768" x2="351.36" y2="-252.035" gradientUnits="userSpaceOnUse"><stop stop-color="#fff"/><stop offset="1" stop-color="#EEE"/></linearGradient><linearGradient id="b" x1="580.786" y1="322.179" x2="490.28" y2="-84.516" gradientUnits="userSpaceOnUse"><stop stop-color="#fff"/><stop offset="1" stop-color="#EEE"/></linearGradient><linearGradient id="c" x1="341.83" y1="608.455" x2="247.461" y2="172.047" gradientUnits="userSpaceOnUse"><stop stop-color="#fff"/><stop offset="1" stop-color="#EEE"/></linearGradient><linearGradient id="d" x1="639.822" y1="251.834" x2="752.939" y2="198.394" gradientUnits="userSpaceOnUse"><stop stop-color="#fff"/><stop offset="1" stop-color="#EEE"/></linearGradient><linearGradient id="e" x1="415.377" y1="144.884" x2="308.291" y2="31.965" gradientUnits="userSpaceOnUse"><stop stop-color="#fff"/><stop offset="1" stop-color="#EEE"/></linearGradient><linearGradient id="f" x1="248.118" y1="340.328" x2="141.498" y2="173.192" gradientUnits="userSpaceOnUse"><stop stop-color="#fff"/><stop offset="1" stop-color="#EEE"/></linearGradient></defs></svg>